Coordinates
version=1
nRows=14
nColumns=40
inDegrees=yes

Units are S.I. units (second, meters, Newtons, ...)
Angles are in degrees.

endheader
time	pelvis_tilt	pelvis_list	pelvis_rotation	pelvis_tx	pelvis_ty	pelvis_tz	hip_flexion_r	hip_adduction_r	hip_rotation_r	knee_angle_r	knee_angle_r_beta	ankle_angle_r	subtalar_angle_r	mtp_angle_r	hip_flexion_l	hip_adduction_l	hip_rotation_l	knee_angle_l	knee_angle_l_beta	ankle_angle_l	subtalar_angle_l	mtp_angle_l	lumbar_extension	lumbar_bending	lumbar_rotation	arm_flex_r	arm_add_r	arm_rot_r	elbow_flex_r	pro_sup_r	wrist_flex_r	wrist_dev_r	arm_flex_l	arm_add_l	arm_rot_l	elbow_flex_l	pro_sup_l	wrist_flex_l	wrist_dev_l
     31.61750000	     -3.54257395	     -5.02728924	     -1.11683322	      1.09814660	      0.92055456	      0.46093155	     22.31158770	      3.14892726	    -14.68234256	     20.50745892	     20.50745892	      4.81726214	     -1.76886314	     -2.82315614	      8.10019874	    -11.57828927	     -5.62123024	     44.17831850	     44.17831850	     13.32155404	    -17.24846813	     -2.41288673	    -10.80248539	      4.25904316	      1.32460744	     -0.39707364	    -13.28042513	     -7.81849631	     29.35143683	     40.65040198	      0.00000000	      0.00000000	      4.51705163	    -11.05148126	     -8.21251416	     74.30290005	     41.57672542	      0.00000000	      0.00000000
     31.63000000	     -3.59667448	     -5.30559938	     -0.87645615	      1.09742701	      0.92126484	      0.46348812	     21.67351624	      3.50290476	    -15.30891638	     20.17175495	     20.17175495	      5.23113107	     -0.97092979	     -3.05183364	     10.44082266	    -12.33208447	     -4.88006166	     48.32717673	     48.32717673	     12.42902262	    -17.66591068	     -0.33844843	    -10.83489650	      4.57522149	      1.20935566	      1.37496533	    -13.26498890	     -6.53827757	     30.90882728	     40.78005759	      0.00000000	      0.00000000	      4.01879723	    -10.84891968	     -7.82466437	     71.55463694	     41.81463109	      0.00000000	      0.00000000
     31.64250000	     -3.81429040	     -5.66905076	     -0.59375398	      1.09642612	      0.92169462	      0.46585911	     21.16187926	      3.98123878	    -15.87858363	     19.66188779	     19.66188779	      5.44332139	     -0.41404154	     -3.12662045	     13.02525008	    -13.17340230	     -4.15119142	     52.17276049	     52.17276049	     11.24928420	    -17.97413743	      0.85074165	    -10.73147710	      4.99080693	      1.12876107	      3.10161137	    -13.19235263	     -6.06873967	     32.16494875	     40.80027906	      0.00000000	      0.00000000	      3.20830390	    -10.65966457	     -7.42436028	     69.49591352	     41.86160912	      0.00000000	      0.00000000
     31.65500000	     -3.82726519	     -5.90953880	     -0.37945778	      1.09531710	      0.92221852	      0.46786221	     20.55932877	      4.28718244	    -16.35039050	     19.40940052	     19.40940052	      5.83460895	      0.25237257	     -3.33720225	     15.48967594	    -13.64921639	     -3.29620694	     55.97404479	     55.97404479	     12.24115718	    -17.86983276	      6.98676138	    -10.80971370	      5.32623564	      1.80871552	      3.85380301	    -14.01178635	     -3.25823481	     35.54969075	     41.10616256	      0.00000000	      0.00000000	      3.68972037	    -10.12103491	     -6.40226937	     65.60491656	     42.40268168	      0.00000000	      0.00000000
     31.66750000	     -3.92379274	     -6.24085976	     -0.14553175	      1.09408651	      0.92257557	      0.46981917	     20.02795872	      4.72911390	    -16.73259945	     19.06137434	     19.06137434	      6.10274948	      0.64825876	     -3.42288962	     17.82927289	    -14.37196362	     -2.78971568	     58.86545529	     58.86545529	     11.26416147	    -18.18222611	      7.22652687	    -10.81725021	      5.72819926	      1.84497476	      5.73693405	    -14.08959691	     -3.23378417	     36.61951212	     41.11367326	      0.00000000	      0.00000000	      2.81558824	     -9.82103530	     -6.09421355	     64.17123258	     42.40315235	      0.00000000	      0.00000000
     31.68000000	     -4.03965668	     -6.44323846	      0.09837016	      1.09269434	      0.92306883	      0.47142076	     19.52481664	      4.97475928	    -17.24584583	     18.71736535	     18.71736535	      6.32592774	      1.38580878	     -3.56615582	     20.21077906	    -14.83602450	     -2.27758585	     61.38043568	     61.38043568	     11.50817363	    -18.22042849	     10.11819597	    -10.75840072	      6.05906876	      2.18680054	      6.87993570	    -14.58028571	     -2.37445729	     39.31777927	     41.22861595	      0.00000000	      0.00000000	      3.26004490	     -9.22106927	     -5.83692205	     59.21239562	     42.61809821	      0.00000000	      0.00000000
     31.69250000	     -4.14722393	     -6.71666260	      0.33016580	      1.09123737	      0.92345555	      0.47292684	     19.02589424	      5.36061958	    -17.51186920	     18.35840356	     18.35840356	      6.58473821	      1.62659857	     -3.58607447	     22.46096419	    -15.44856925	     -1.99474113	     63.22186867	     63.22186867	     11.11132763	    -18.41374817	     10.36838937	    -10.76229537	      6.45148279	      2.08327473	      8.70483755	    -14.72185934	     -2.48527175	     40.74110399	     41.23787337	      0.00000000	      0.00000000	      2.21631056	     -9.04780942	     -5.49546895	     57.85310858	     42.61996006	      0.00000000	      0.00000000
     31.70500000	     -4.18539625	     -6.88833511	      0.54114304	      1.08969511	      0.92407146	      0.47421209	     18.48518643	      5.61887351	    -17.75694402	     18.04362023	     18.04362023	      6.77773238	      1.95487715	     -3.59300832	     24.51169069	    -15.92979271	     -1.86402695	     64.44451892	     64.44451892	     10.97276847	    -18.53511629	     10.79694501	    -10.82999412	      6.72490269	      1.94232616	     10.53346338	    -14.86315482	     -2.60402916	     42.44093916	     41.23473223	      0.00000000	      0.00000000	      1.23823116	     -8.87806647	     -5.21057151	     56.00778165	     42.62259462	      0.00000000	      0.00000000
     31.71750000	     -4.19310116	     -6.89919658	      0.73806598	      1.08808603	      0.92488313	      0.47513713	     17.91461720	      5.66231926	    -18.07583054	     17.76864222	     17.76864222	      7.10725954	      2.56105951	     -3.47814608	     26.44596108	    -16.14974528	     -1.85195910	     65.16504453	     65.16504453	     11.73566924	    -18.57280177	     13.34936699	    -10.96042305	      6.92947349	      2.87732363	     10.54636751	    -15.83239853	     -2.66282906	     47.22771309	     41.36270547	      0.00000000	      0.00000000	      1.97771776	     -8.16554162	     -4.88101042	     50.99274232	     42.87432872	      0.00000000	      0.00000000
     31.73000000	     -4.18559071	     -6.98896427	      0.97342404	      1.08643913	      0.92564086	      0.47593576	     17.30400100	      5.83066891	    -18.27708619	     17.40403661	     17.40403661	      7.34432590	      2.81332406	     -3.45036283	     28.19107063	    -16.52134186	     -2.01253456	     65.16411229	     65.16411229	     11.78327111	    -18.68438282	     13.46853213	    -11.08267060	      7.18122723	      2.58762289	     12.39305657	    -15.92093629	     -3.05829059	     48.92333337	     41.38054723	      0.00000000	      0.00000000	      0.71105959	     -8.12105960	     -4.59305158	     49.68558291	     42.88051546	      0.00000000	      0.00000000
     31.74250000	     -4.13194323	     -6.95341203	      1.18635383	      1.08477842	      0.92653407	      0.47642315	     16.66516372	      5.81044693	    -18.61282783	     17.12242139	     17.12242139	      7.70963753	      3.39650605	     -3.31341782	     29.69704719	    -16.71006803	     -2.34201278	     64.58232286	     64.58232286	     12.18146509	    -18.77498474	     14.43356799	    -11.30495657	      7.35511431	      3.24539964	     12.71360317	    -16.62285412	     -4.02558857	     53.11576524	     41.55694224	      0.00000000	      0.00000000	      0.60262904	     -7.67577541	     -4.34846295	     46.58205020	     43.11093995	      0.00000000	      0.00000000
     31.75500000	     -4.04331152	     -6.93589177	      1.42351270	      1.08310777	      0.92745104	      0.47678101	     15.93031241	      5.86870138	    -18.76266923	     16.69094936	     16.69094936	      7.98289524	      3.63101379	     -3.28129650	     30.97370447	    -16.90854308	     -2.77473808	     63.39030261	     63.39030261	     12.32658456	    -18.85727424	     14.64499789	    -11.50707188	      7.53426454	      2.93040774	     14.47848136	    -16.68934231	     -4.48514997	     54.89090155	     41.57728927	      0.00000000	      0.00000000	     -0.70885707	     -7.68784001	     -4.14146816	     45.35579428	     43.12410066	      0.00000000	      0.00000000
     31.76750000	     -3.94609153	     -6.86233279	      1.65070727	      1.08143086	      0.92834940	      0.47689298	     15.17620921	      5.85330549	    -18.96036098	     16.25637422	     16.25637422	      8.25823242	      3.96081290	     -3.27317728	     32.02562251	    -17.00182312	     -3.32467676	     61.66281672	     61.66281672	     12.49592192	    -18.91439096	     14.96409409	    -11.72991826	      7.68507505	      2.70549602	     16.04639932	    -16.84428900	     -4.90157758	     56.93661755	     41.57702177	      0.00000000	      0.00000000	     -1.90120450	     -7.64230701	     -4.03021300	     44.08477314	     43.14074393	      0.00000000	      0.00000000
     31.78000000	     -3.87523182	     -6.81332106	      1.89485971	      1.07971840	      0.92905551	      0.47676976	     14.48489033	      5.79784753	    -19.38600595	     15.91229612	     15.91229612	      8.62701827	      4.62776474	     -3.32327713	     32.95802667	    -17.00545069	     -3.79824867	     59.52017117	     59.52017117	     12.75519669	    -18.92345886	     15.65993935	    -11.96462647	      7.91649527	      3.53507439	     15.80608154	    -17.84486822	     -5.87578560	     62.02940947	     41.67751103	      0.00000000	      0.00000000	     -2.08091904	     -7.24331356	     -4.16906930	     41.56657066	     43.36224078	      0.00000000	      0.00000000
